<svg width="9.000000" height="5.000000" viewBox="0 0 9 5" fill="none" xmlns="http://www.w3.org/2000/svg" xmlns:xlink="http://www.w3.org/1999/xlink">
	<desc>
			Created with Pixso.
	</desc>
	<defs/>
	<path id="Vector" d="M7.96 0.54C8.23 0.28 8.23 -0.15 7.96 -0.42C7.7 -0.68 7.27 -0.68 7.01 -0.42L4 2.61L0.98 -0.42C0.72 -0.68 0.29 -0.68 0.03 -0.42C-0.24 -0.15 -0.24 0.28 0.03 0.54L3.51 4.04C3.51 4.04 3.52 4.05 3.52 4.05C3.6 4.14 3.71 4.19 3.82 4.22C3.82 4.22 3.82 4.22 3.83 4.23C4.05 4.28 4.3 4.22 4.47 4.05C4.48 4.04 4.48 4.04 4.48 4.04L7.96 0.54Z" fill="#9E9EA7" fill-opacity="1.000000" fill-rule="nonzero"/>
</svg>
